<svg width="125" height="125" viewBox="0 0 125 125" fill="none" xmlns="http://www.w3.org/2000/svg">
<path d="M16.125 41.6667C16.125 27.5834 27.5834 16.125 41.6667 16.125H83.3333C97.4166 16.125 108.875 27.5834 108.875 41.6667V83.3333C108.875 97.4166 97.4166 108.875 83.3333 108.875H41.6667C27.5834 108.875 16.125 97.4166 16.125 83.3333V41.6667ZM83.3333 25.5417H41.6667C32.7759 25.5417 25.5417 32.7759 25.5417 41.6667V83.3333C25.5417 92.2241 32.7759 99.4583 41.6667 99.4583H83.3333C92.2241 99.4583 99.4583 92.2241 99.4583 83.3333V41.6667C99.4583 32.7759 92.2241 25.5417 83.3333 25.5417ZM85.2124 33.129C86.0954 32.2461 87.2929 31.75 88.5417 31.75C89.7904 31.75 90.988 32.2461 91.871 33.129C92.754 34.012 93.25 35.2096 93.25 36.4583C93.25 37.7071 92.754 38.9046 91.871 39.7876C90.988 40.6706 89.7904 41.1667 88.5417 41.1667C87.2929 41.1667 86.0954 40.6706 85.2124 39.7876C84.3294 38.9046 83.8333 37.7071 83.8333 36.4583C83.8333 35.2096 84.3294 34.012 85.2124 33.129ZM36.9583 62.5C36.9583 48.4168 48.4168 36.9583 62.5 36.9583C76.5832 36.9583 88.0417 48.4168 88.0417 62.5C88.0417 76.5832 76.5832 88.0417 62.5 88.0417C48.4168 88.0417 36.9583 76.5832 36.9583 62.5ZM78.625 62.5C78.625 53.6093 71.3907 46.375 62.5 46.375C53.6093 46.375 46.375 53.6093 46.375 62.5C46.375 71.3907 53.6093 78.625 62.5 78.625C71.3907 78.625 78.625 71.3907 78.625 62.5Z" fill="white" stroke="#2D1C1C"/>
</svg>
