<svg width="57" height="50" viewBox="0 0 57 50" fill="none" xmlns="http://www.w3.org/2000/svg">
<path fill-rule="evenodd" clip-rule="evenodd" d="M2.65796 0H54.3467C55.0796 0 55.7429 0.334833 56.2253 0.878937C56.7078 1.42304 57.0046 2.17118 57.0046 2.9978V40.2846C57.0046 41.1112 56.7078 41.8594 56.2253 42.4035C55.7429 42.9476 55.0796 43.2824 54.3467 43.2824H53.2427L50.9187 38.2285C51.0486 37.7838 51.1367 37.3444 51.197 36.9101L51.2341 36.6328C51.4939 36.3032 51.749 35.9213 51.9902 35.4766C52.032 35.3981 52.0737 35.3197 52.1155 35.236C52.5237 34.4093 52.7927 33.5409 52.9226 32.6096C52.9319 32.5521 52.9365 32.4893 52.9458 32.4317L54.1148 31.1133V12.1639L46.2151 3.25939H10.7849L2.88989 12.1639V31.1133L10.7849 40.0178H28.064L26.6353 43.1307C26.6121 43.1778 26.5889 43.2301 26.5657 43.2772H2.65796C1.92505 43.2772 1.26172 42.9423 0.779297 42.3982C0.296875 41.8594 0 41.1112 0 40.2846V2.9978C0 2.17118 0.296875 1.42304 0.779297 0.878937C1.26172 0.334833 1.92505 0 2.65796 0ZM39.9019 21.6438C40.1523 21.6281 40.375 21.6752 40.5837 21.7537C40.7878 21.8322 40.9734 21.9525 41.1682 22.0833C41.363 22.2245 41.5671 22.4129 41.7805 22.6274L41.7944 22.6431C42.0635 22.9047 42.365 23.1924 42.699 23.4069C42.9727 23.5796 43.3762 23.5953 43.803 23.6214C44.6055 23.6528 45.4775 23.6947 46.0527 24.6573C46.5491 25.4996 46.5908 26.1327 46.6233 26.771L46.6326 26.839C46.6465 27.1476 46.679 27.4354 46.7764 27.7493C46.8738 28.0737 47.0408 28.419 47.3191 28.8427C47.8433 29.6223 48.1541 30.2815 48.2747 30.8884C48.3999 31.5266 48.3164 32.0969 48.0288 32.6829L48.0195 32.6985C47.8062 33.1171 47.4907 33.4205 47.217 33.6821C47.0129 33.8809 46.832 34.0536 46.7764 34.1948C46.6279 34.582 46.6233 34.9325 46.6233 35.304C46.614 35.8062 46.6094 36.3242 46.3171 36.9886L46.3125 37.0043C46.1223 37.4124 45.8857 37.7577 45.6028 38.0349C45.3105 38.3175 44.9673 38.532 44.5776 38.6732C44.2297 38.7988 43.9097 38.7779 43.5942 38.7517C43.3345 38.7308 43.0979 38.7151 42.917 38.7988L42.8938 38.804C42.5181 38.9871 42.1748 39.301 41.8501 39.5888C41.4883 39.9184 41.145 40.2271 40.7554 40.3683C40.4678 40.473 40.1848 40.52 39.8972 40.52C39.6096 40.52 39.3267 40.473 39.0391 40.3683L39.0251 40.3631C38.6401 40.2271 38.3015 39.9132 37.9397 39.5836C37.6104 39.2853 37.2625 38.9714 36.8774 38.7883C36.6965 38.6994 36.46 38.7255 36.2002 38.7412C35.894 38.7622 35.5647 38.7883 35.2122 38.6628L35.1936 38.6523C34.8086 38.511 34.4746 38.3018 34.1824 38.0245C33.8948 37.742 33.6536 37.3967 33.4727 36.9781C33.1804 36.3189 33.1758 35.801 33.1665 35.2987C33.1572 34.9273 33.1572 34.5767 33.0134 34.1896L33.0088 34.1844C32.9485 34.0326 32.7629 33.86 32.5635 33.6664C32.2852 33.3996 31.9697 33.1014 31.761 32.6829L31.7471 32.6567C31.4595 32.0812 31.3853 31.5162 31.5105 30.8831C31.6311 30.2762 31.9512 29.617 32.4707 28.8375C32.7583 28.419 32.916 28.0684 33.0134 27.7441C33.1108 27.4302 33.148 27.1319 33.1619 26.8233L33.1711 26.7605C33.2036 26.1222 33.25 25.4735 33.7417 24.6469L33.7556 24.6312C34.3262 23.679 35.1936 23.6476 35.9868 23.6162C36.4136 23.6005 36.8218 23.5743 37.0955 23.4017L37.1047 23.3912C37.4341 23.1767 37.731 22.8942 38.0046 22.6274C38.2227 22.4129 38.4221 22.2193 38.6309 22.0781C38.821 21.9368 39.0159 21.8269 39.2153 21.7485C39.4334 21.6752 39.656 21.6386 39.9019 21.6438ZM48.4045 47.7608L46.3079 47.337L45.2549 49.4664C45.2502 49.4821 45.241 49.4977 45.2271 49.5082C44.7864 50.1203 44.3828 50.1046 44.0349 49.7855C43.6592 49.4402 43.4087 48.7025 43.2463 48.216L43.186 48.0276L40.9641 43.2929C40.8945 43.1412 40.9456 42.9633 41.0754 42.89C41.0894 42.8796 41.1033 42.8743 41.1126 42.8743C41.3445 42.7854 41.5996 42.6075 41.8779 42.3721C42.1702 42.1262 42.4763 41.8227 42.7918 41.5088C42.8474 41.4513 42.917 41.4199 42.9959 41.4304C43.5942 41.4461 44.1787 41.3885 44.7029 41.1949C45.2178 40.9961 45.6909 40.6508 46.0945 40.0701C46.1873 39.9341 46.3543 39.9132 46.4656 40.0126C46.4934 40.0439 46.5212 40.0753 46.5352 40.1172L49.105 45.7152L49.3276 46.2593C49.3369 46.275 49.3416 46.2907 49.3416 46.3064C49.4436 46.7249 49.4668 47.0859 49.3416 47.358C49.2024 47.6666 48.9287 47.8236 48.4695 47.7817C48.4556 47.7765 48.4277 47.766 48.4045 47.7608ZM33.5098 47.337L31.4131 47.7608C31.3945 47.766 31.3713 47.766 31.3435 47.766C30.8843 47.8079 30.6106 47.6457 30.4714 47.3423C30.3462 47.0754 30.3647 46.7145 30.4714 46.2907L30.4854 46.2436L30.708 45.6995L33.2778 40.1015C33.2917 40.0596 33.3196 40.0282 33.3474 39.9969C33.468 39.8922 33.6257 39.9184 33.7185 40.0492C34.1174 40.6247 34.5906 40.97 35.1147 41.174C35.6436 41.378 36.2234 41.4251 36.8218 41.4094C36.8914 41.4042 36.9609 41.4251 37.0259 41.4879C37.3413 41.8018 37.6475 42.1105 37.9397 42.3512C38.218 42.5866 38.4778 42.7697 38.7051 42.8534L38.7376 42.8691C38.8721 42.9476 38.9185 43.1307 38.8489 43.2719L36.627 48.0015L36.562 48.1846C36.4043 48.6711 36.1538 49.4088 35.7734 49.7541C35.4255 50.068 35.0266 50.0942 34.5813 49.4768C34.572 49.4611 34.5627 49.4559 34.5535 49.4402L33.5098 47.337ZM43.1489 27.4145C42.3186 26.478 41.1775 25.8972 39.9065 25.8972C38.6355 25.8972 37.4944 26.478 36.6641 27.4145C35.8337 28.3509 35.3188 29.638 35.3188 31.0715C35.3188 32.4997 35.8337 33.792 36.6641 34.7285C37.4944 35.665 38.6355 36.2457 39.9065 36.2457C41.1729 36.2457 42.3186 35.665 43.1489 34.7285C43.9792 33.792 44.4941 32.505 44.4941 31.0715C44.4895 29.6484 43.9792 28.3509 43.1489 27.4145ZM14.3892 26.7657C14.2036 26.7657 14.0366 26.6349 13.916 26.4309C13.7954 26.2216 13.7166 25.9339 13.7166 25.6147C13.7166 25.2956 13.7908 25.0078 13.916 24.7986C14.0366 24.5893 14.2083 24.4637 14.3892 24.4637H22.3213C22.5068 24.4637 22.6738 24.5945 22.7944 24.7986C22.915 25.0078 22.9893 25.2956 22.9893 25.6147C22.9893 25.9339 22.915 26.2268 22.7944 26.4309C22.6738 26.6402 22.5022 26.7657 22.3213 26.7657H14.3892ZM13.8882 33.9228C15.8457 31.0244 17.5203 32.3428 19.8582 34.1844C19.9741 34.2785 20.0947 34.3675 20.2107 34.4617C20.5447 34.7232 20.8972 34.6762 21.2498 34.4826C21.6301 34.2681 22.0151 33.8862 22.3955 33.5042L22.4048 33.499C22.748 33.1589 23.082 32.8241 23.4438 32.5678C23.5042 32.5259 23.5876 32.5468 23.6248 32.6148L24.1582 33.5618C24.1953 33.6298 24.1768 33.724 24.1165 33.7658C23.8381 33.9646 23.5366 34.2681 23.2305 34.5715L23.2212 34.5767C22.6877 35.1104 22.1404 35.6493 21.5374 35.9318C20.9158 36.2195 20.2432 36.2195 19.4963 35.6336L19.1392 35.3511C18.2393 34.6395 17.4692 34.0379 16.7734 33.8443C16.1101 33.6664 15.5024 33.8809 14.8901 34.786C14.8438 34.854 14.7603 34.8645 14.7046 34.8122L13.916 34.1373C13.8557 34.085 13.8418 33.9908 13.8882 33.9228ZM14.3892 11.9441C14.2036 11.9441 14.032 11.8133 13.9114 11.6093C13.7908 11.4053 13.7119 11.1123 13.7119 10.7984C13.7119 10.4792 13.7861 10.1967 13.9114 9.98744C14.032 9.77817 14.2036 9.65261 14.3892 9.65261H33.5701C33.7556 9.65261 33.9272 9.7834 34.0479 9.98744C34.1685 10.1967 34.2427 10.4845 34.2427 10.7984C34.2427 11.1175 34.1685 11.4 34.0479 11.6093C33.9272 11.8186 33.7556 11.9494 33.5701 11.9494L14.3892 11.9441ZM14.3892 19.7342C14.2036 19.7342 14.0366 19.6034 13.916 19.3942C13.7954 19.1849 13.7166 18.8971 13.7166 18.5832C13.7166 18.2641 13.7908 17.9816 13.916 17.7671C14.0366 17.5578 14.2083 17.4322 14.3938 17.4322H29.7246C29.9102 17.4322 30.0771 17.563 30.1978 17.7671C30.3184 17.9764 30.3972 18.2641 30.3972 18.578C30.3972 18.8971 30.323 19.1797 30.1978 19.3889C30.0771 19.5982 29.9055 19.7238 29.7246 19.7238H14.3892V19.7342Z" fill="#201E1E"/>
</svg>
