<svg width="165" height="165" viewBox="0 0 165 165" fill="none" xmlns="http://www.w3.org/2000/svg">
<path d="M82.5 0C36.9463 0 0 36.9394 0 82.5C0 118.951 23.6362 149.875 56.4231 160.786C60.5412 161.549 61.875 158.991 61.875 156.819V141.46C38.9263 146.451 34.1481 131.725 34.1481 131.725C30.3944 122.189 24.9838 119.652 24.9838 119.652C17.4969 114.531 25.5544 114.641 25.5544 114.641C33.8387 115.218 38.1975 123.145 38.1975 123.145C45.5538 135.754 57.4956 132.11 62.205 129.999C62.9406 124.671 65.0788 121.028 67.4438 118.972C49.1219 116.875 29.8581 109.801 29.8581 78.1963C29.8581 69.1831 33.0825 61.8269 38.3556 56.0519C37.5031 53.9688 34.6775 45.5744 39.16 34.2169C39.16 34.2169 46.09 32.0031 61.8544 42.6731C68.4337 40.8444 75.4875 39.93 82.5 39.8956C89.5125 39.93 96.5731 40.8444 103.166 42.6731C118.917 32.0031 125.833 34.2169 125.833 34.2169C130.322 45.5813 127.497 53.9756 126.644 56.0519C131.938 61.8269 135.135 69.19 135.135 78.1963C135.135 109.883 115.837 116.861 97.4669 118.903C100.423 121.461 103.125 126.479 103.125 134.179V156.819C103.125 159.012 104.445 161.59 108.632 160.779C141.391 149.854 165 118.938 165 82.5C165 36.9394 128.061 0 82.5 0Z" fill="white"/>
</svg>
