<svg width="125" height="125" viewBox="0 0 125 125" fill="none" xmlns="http://www.w3.org/2000/svg">
<path d="M62.5 12.5C34.8875 12.5 12.5 34.8875 12.5 62.5C12.5 85.9292 28.6333 105.533 50.3833 110.958C50.15 110.283 50 109.5 50 108.529V99.9833C47.9708 99.9833 44.5708 99.9833 43.7167 99.9833C40.2958 99.9833 37.2542 98.5125 35.7792 95.7792C34.1417 92.7417 33.8583 88.0958 29.8 85.2542C28.5958 84.3083 29.5125 83.2292 30.9 83.375C33.4625 84.1 35.5875 85.8583 37.5875 88.4667C39.5792 91.0792 40.5167 91.6708 44.2375 91.6708C46.0417 91.6708 48.7417 91.5667 51.2833 91.1667C52.65 87.6958 55.0125 84.5 57.9 82.9917C41.25 81.2792 33.3042 72.9958 33.3042 61.75C33.3042 56.9083 35.3667 52.225 38.8708 48.2792C37.7208 44.3625 36.275 36.375 39.3125 33.3333C46.8042 33.3333 51.3333 38.1917 52.4208 39.5042C56.1542 38.225 60.2542 37.5 64.5625 37.5C68.8792 37.5 72.9958 38.225 76.7375 39.5125C77.8125 38.2083 82.3458 33.3333 89.8542 33.3333C92.9042 36.3792 91.4417 44.4 90.2792 48.3083C93.7625 52.2458 95.8125 56.9167 95.8125 61.75C95.8125 72.9875 87.8792 81.2667 71.2542 82.9875C75.8292 85.375 79.1667 92.0833 79.1667 97.1375V108.529C79.1667 108.963 79.0708 109.275 79.0208 109.646C98.5042 102.817 112.5 84.3167 112.5 62.5C112.5 34.8875 90.1125 12.5 62.5 12.5Z" fill="white"/>
</svg>
