<svg width="57" height="57" viewBox="0 0 57 57" fill="none" xmlns="http://www.w3.org/2000/svg">
<path fill-rule="evenodd" clip-rule="evenodd" d="M24.9376 38.7215L24.8633 43.5368H29.5762C30.0569 43.5381 30.5175 43.7431 30.8574 44.1068C31.1972 44.4705 31.3887 44.9635 31.3899 45.4779V47.4189V54.5427C31.3887 55.0571 31.1972 55.55 30.8574 55.9137C30.5175 56.2775 30.0569 56.4824 29.5762 56.4837H27.744V47.9749C27.744 47.126 27.4424 47.4189 26.5425 47.4189H22.493H20.1736C19.4502 47.4163 18.7572 47.1072 18.246 46.5593C17.7349 46.0114 17.4473 45.2692 17.4461 44.4949V34.3529C17.4461 33.5629 17.7393 32.8053 18.2613 32.2467C18.7832 31.6881 19.4912 31.3743 20.2293 31.3743H21.6209C24.483 31.3743 24.0237 33.4792 25.2901 34.8046C26.5564 36.1301 26.2178 36.2641 27.9295 36.2641H31.608C34.6556 36.2641 32.9996 39.4314 31.2137 39.3321H27.8321C26.3292 39.3321 26.1993 39.5902 24.9607 38.7066L24.9376 38.7215ZM5.33916 56.9901V26.8717C4.4045 27.2918 3.36112 27.3445 2.39361 27.0206C1.75507 26.7944 1.19126 26.3755 0.770072 25.8143C0.349279 25.2422 0.0901495 24.5532 0.0232458 23.8286C-0.0274036 23.171 0.0449638 22.5091 0.236117 21.8818C0.42727 21.2544 0.733372 20.6741 1.13653 20.1749V20.1749C1.18315 20.1126 1.23604 20.056 1.29424 20.0061L27.7625 0.273033C27.9314 0.106734 28.15 0.00997501 28.3794 -2.44625e-05C28.6087 -0.0100239 28.8339 0.0673849 29.0149 0.218426L55.5389 19.9267C55.5808 19.9607 55.6197 19.9989 55.6548 20.0408C56.8841 21.4557 57.1902 23.0194 56.8934 24.3449C56.7488 24.9862 56.4589 25.5795 56.0491 26.0725C55.6415 26.5642 55.1246 26.9382 54.5462 27.1596C54.0342 27.3502 53.4917 27.429 52.9507 27.3915C52.4098 27.354 51.8813 27.2009 51.3965 26.9412V56.9305H48.7989V25.72C48.7989 25.2236 30.606 12.1923 28.5975 10.5193C26.4683 12.2519 7.93682 25.1541 7.93682 25.8143V57.0149H5.33916V56.9901ZM43.4876 1.76232L51.4522 2.10982V13.622L43.4876 7.99747V1.76232ZM34.2474 39.337C34.0419 39.337 33.8449 39.2497 33.6996 39.0942C33.5543 38.9387 33.4727 38.7279 33.4727 38.508C33.4727 38.2881 33.5543 38.0773 33.6996 37.9218C33.8449 37.7663 34.0419 37.679 34.2474 37.679H39.6421L42.3882 31.7218C42.478 31.5243 42.6375 31.3731 42.8315 31.3014C43.0255 31.2297 43.2381 31.2435 43.4227 31.3396C43.6072 31.4357 43.7485 31.6063 43.8155 31.8139C43.8825 32.0215 43.8696 32.2491 43.7798 32.4466L40.8436 38.8009C40.788 38.9583 40.689 39.0939 40.5598 39.1896C40.4305 39.2854 40.2771 39.3368 40.1199 39.337H34.2474ZM27.41 39.9675H42.815C42.8581 39.9675 42.8993 39.9858 42.9298 40.0184C42.9602 40.051 42.9773 40.0952 42.9773 40.1413V42.6234C42.9773 42.6695 42.9602 42.7137 42.9298 42.7463C42.8993 42.7788 42.8581 42.7972 42.815 42.7972H42.0867V56.7816C42.0855 56.8417 42.0627 56.8991 42.0229 56.9416C41.9832 56.9842 41.9296 57.0087 41.8733 57.0099H40.0179C39.9617 57.0087 39.9081 56.9842 39.8683 56.9416C39.8285 56.8991 39.8057 56.8417 39.8045 56.7816V42.7872H27.41C27.3669 42.7872 27.3256 42.7689 27.2952 42.7363C27.2647 42.7038 27.2476 42.6596 27.2476 42.6135V40.1313C27.2476 40.0852 27.2647 40.0411 27.2952 40.0085C27.3256 39.9759 27.3669 39.9576 27.41 39.9576V39.9675ZM15.4144 54.6668C15.4277 54.5427 15.4801 54.4272 15.5628 54.3391C16.2235 53.6368 17.0133 53.0891 17.8821 52.7307C18.5388 52.4689 19.2252 52.302 19.9231 52.2343L19.7886 50.3925H14.8716C14.6256 50.3925 14.3896 50.2879 14.2156 50.1017C14.0416 49.9155 13.9439 49.663 13.9439 49.3997C13.9439 45.2644 14.8716 42.1568 13.9439 37.4506C13.6749 36.0556 16.3653 35.8521 16.3653 37.5251V48.0891H25.6705C26.1854 48.0891 26.5982 48.8238 26.5982 49.3699V50.1393C26.5982 50.1973 26.5767 50.2528 26.5384 50.2938C26.5001 50.3348 26.4482 50.3578 26.3941 50.3578H21.4585L21.2684 52.1747C22.0087 52.2299 22.7381 52.397 23.4346 52.6711C24.2694 52.9891 25.0383 53.4781 25.6983 54.1108C25.7691 54.1805 25.8208 54.2696 25.8477 54.3685C25.8747 54.4673 25.876 54.5722 25.8514 54.6717C25.9857 54.76 26.0943 54.8868 26.1648 55.0377C26.2353 55.1886 26.2649 55.3576 26.2503 55.5256C26.2331 55.7942 26.1213 56.0457 25.9375 56.2295C25.7536 56.4132 25.5115 56.5154 25.2599 56.5154C25.0084 56.5154 24.7663 56.4132 24.5824 56.2295C24.3986 56.0457 24.2868 55.7942 24.2696 55.5256C24.2556 55.3564 24.286 55.1865 24.3573 55.0348C24.4285 54.8831 24.5379 54.7556 24.6731 54.6668C24.1892 54.2685 23.6511 53.9521 23.0774 53.7285C22.4081 53.4716 21.7054 53.3275 20.9947 53.3016L20.8741 54.4533V54.503C21.0873 54.5587 21.276 54.6913 21.4087 54.8784C21.5413 55.0655 21.6097 55.2958 21.6023 55.5306C21.6023 55.8123 21.4978 56.0825 21.3116 56.2818C21.1254 56.481 20.8729 56.5929 20.6097 56.5929C20.3464 56.5929 20.0939 56.481 19.9077 56.2818C19.7216 56.0825 19.617 55.8123 19.617 55.5306C19.6094 55.2978 19.6766 55.0693 19.8075 54.8831C19.9383 54.697 20.1249 54.5646 20.336 54.5079V54.4533L20.2618 53.3215C19.5816 53.3675 18.912 53.5249 18.2764 53.7881V53.7881C17.7022 54.0279 17.1668 54.363 16.69 54.781C16.7956 54.8702 16.8783 54.9868 16.9302 55.1196C16.9822 55.2525 17.0017 55.3973 16.9869 55.5405C16.9635 55.8137 16.8506 56.0693 16.668 56.2619C16.4855 56.4545 16.2452 56.5718 15.9896 56.5929C15.7336 56.5733 15.4928 56.4556 15.3113 56.2614C15.1298 56.0672 15.0198 55.8095 15.0015 55.5355C14.9881 55.3647 15.0197 55.1932 15.0927 55.0405C15.1656 54.8879 15.2771 54.7601 15.4144 54.6717V54.6668ZM23.3558 22.7762C24.1073 22.7752 24.8423 23.0128 25.4677 23.459C26.093 23.9051 26.5807 24.5397 26.869 25.2826C27.1572 26.0254 27.2331 26.8431 27.087 27.6321C26.941 28.4211 26.5795 29.146 26.0484 29.7151C25.5173 30.2842 24.8403 30.6719 24.1033 30.8292C23.3662 30.9865 22.6021 30.9062 21.9076 30.5987C21.2132 30.2911 20.6196 29.77 20.2019 29.1012C19.7843 28.4325 19.5613 27.6463 19.5613 26.8419C19.5613 25.7645 19.961 24.7311 20.6724 23.9688C21.3839 23.2064 22.349 22.7775 23.3558 22.7762V22.7762Z" fill="#201E1E"/>
</svg>
