<svg width="165" height="165" viewBox="0 0 165 165" fill="none" xmlns="http://www.w3.org/2000/svg">
<path d="M82.5 13.75C120.409 13.75 151.25 44.5913 151.25 82.5C151.25 120.409 120.409 151.25 82.5 151.25C44.5913 151.25 13.75 120.409 13.75 82.5C13.75 44.5913 44.5913 13.75 82.5 13.75ZM82.5 0C36.9394 0 0 36.9394 0 82.5C0 128.061 36.9394 165 82.5 165C128.061 165 165 128.061 165 82.5C165 36.9394 128.061 0 82.5 0ZM82.5 48.6887C93.5137 48.6887 94.82 48.73 99.1719 48.9294C110.358 49.4381 115.569 54.7388 116.084 65.835C116.277 70.1869 116.318 71.4863 116.318 82.5C116.318 93.5137 116.277 94.82 116.084 99.165C115.569 110.254 110.364 115.569 99.1719 116.078C94.82 116.27 93.5206 116.318 82.5 116.318C71.4863 116.318 70.18 116.277 65.835 116.078C54.6288 115.562 49.4381 110.241 48.9225 99.165C48.73 94.82 48.6819 93.5137 48.6819 82.5C48.6819 71.4863 48.73 70.18 48.9225 65.835C49.4313 54.7319 54.6425 49.4313 65.835 48.9225C70.18 48.7231 71.4863 48.6887 82.5 48.6887V48.6887ZM82.5 41.25C71.2938 41.25 69.8981 41.2981 65.4913 41.5044C50.5037 42.1919 42.185 50.5037 41.4975 65.4913C41.2981 69.8981 41.25 71.3006 41.25 82.5C41.25 93.7062 41.2981 95.1087 41.4975 99.5087C42.185 114.489 50.5037 122.815 65.4913 123.503C69.8981 123.702 71.2938 123.75 82.5 123.75C93.7062 123.75 95.1088 123.702 99.5156 123.503C114.476 122.815 122.829 114.503 123.503 99.5087C123.702 95.1087 123.75 93.7062 123.75 82.5C123.75 71.3006 123.702 69.8981 123.503 65.4913C122.829 50.5244 114.503 42.185 99.5156 41.5044C95.1088 41.2981 93.7062 41.25 82.5 41.25V41.25ZM82.5 61.3181C70.8056 61.3181 61.3181 70.7987 61.3181 82.5C61.3181 94.2013 70.8056 103.682 82.5 103.682C94.1944 103.682 103.682 94.2013 103.682 82.5C103.682 70.8056 94.1944 61.3181 82.5 61.3181ZM82.5 96.25C74.9031 96.25 68.75 90.0969 68.75 82.5C68.75 74.91 74.9031 68.75 82.5 68.75C90.09 68.75 96.2569 74.9031 96.2569 82.5C96.2569 90.0969 90.09 96.25 82.5 96.25ZM104.514 55.5363C101.784 55.5363 99.5638 57.75 99.5638 60.4863C99.5638 63.2156 101.777 65.4362 104.514 65.4362C107.25 65.4362 109.471 63.2225 109.471 60.4863C109.471 57.75 107.257 55.5363 104.514 55.5363Z" fill="black"/>
</svg>
