<svg width="165" height="165" viewBox="0 0 165 165" fill="none" xmlns="http://www.w3.org/2000/svg">
<path d="M82.5 13.75C120.409 13.75 151.25 44.5913 151.25 82.5C151.25 120.409 120.409 151.25 82.5 151.25C44.5913 151.25 13.75 120.409 13.75 82.5C13.75 44.5913 44.5913 13.75 82.5 13.75ZM82.5 0C36.9394 0 0 36.9394 0 82.5C0 128.061 36.9394 165 82.5 165C128.061 165 165 128.061 165 82.5C165 36.9394 128.061 0 82.5 0ZM68.75 55C68.75 58.8294 65.6769 61.93 61.875 61.93C58.0731 61.93 55 58.8363 55 55C55 51.1706 58.0731 48.07 61.875 48.07C65.6769 48.07 68.75 51.1775 68.75 55V55ZM68.75 68.75H55V110H68.75V68.75ZM89.375 68.75H75.625V110H89.375V90.3306C89.375 78.4919 103.139 77.3987 103.139 90.3306V110H116.875V86.9069C116.875 64.3294 95.37 65.1544 89.375 76.2644V68.75Z" fill="black"/>
</svg>
