<svg width="125" height="125" viewBox="0 0 125 125" fill="none" xmlns="http://www.w3.org/2000/svg">
<path d="M26.0417 15.625C20.2865 15.625 15.625 20.2865 15.625 26.0417V98.9583C15.625 104.714 20.2865 109.375 26.0417 109.375H98.9583C104.714 109.375 109.375 104.714 109.375 98.9583V26.0417C109.375 20.2865 104.714 15.625 98.9583 15.625H26.0417ZM26.0417 26.0417H98.9583V98.9583H26.0417V26.0417ZM40.5172 32.8979C36.0536 32.8979 33.3761 35.5811 33.3761 39.1541C33.3761 42.727 36.054 45.4 40.0696 45.4C44.5331 45.4 47.2107 42.727 47.2107 39.1541C47.2107 35.5811 44.5328 32.8979 40.5172 32.8979ZM33.7321 52.0833V88.5417H46.875V52.0833H33.7321ZM57.7189 52.0833V88.5417H70.8618V68.6137C70.8618 62.6814 75.0943 61.8286 76.3652 61.8286C77.636 61.8286 81.0343 63.1033 81.0343 68.6137V88.5417H93.75V68.6137C93.75 57.171 88.6653 52.0833 82.3059 52.0833C75.9465 52.0833 72.5545 54.2008 70.8618 57.1696V52.0833H57.7189Z" fill="white"/>
</svg>
