<svg width="57" height="58" viewBox="0 0 57 58" fill="none" xmlns="http://www.w3.org/2000/svg">
<path d="M9.00104 33.1409C6.75259 33.6133 4.42839 33.6605 2.1752 31.3508C0.669917 29.811 -0.0827244 27.5107 0.00721385 25.1018C5.768 31.7853 12.7879 23.5242 4.26745 19.2306C8.38094 17.2846 12.2625 19.1125 14.3216 22.896C15.2967 24.6814 15.879 25.6166 16.6221 26.2543C16.7568 26.3722 16.8991 26.481 17.0482 26.5802C17.3633 25.6786 18.0049 24.9272 18.8469 24.4736C19.3225 24.2278 19.8498 24.0982 20.3853 24.0957C21.8906 24.0957 23.7651 24.9931 24.0823 26.5235C24.1501 26.5045 24.2201 26.495 24.2906 26.4952H25.384C25.4422 26.4879 25.501 26.4879 25.5592 26.4952C26.1371 26.5482 26.6817 26.789 27.1092 27.1806C27.5368 27.5723 27.8237 28.0931 27.9259 28.6632C28.0309 28.6133 28.1458 28.5875 28.262 28.5876H29.3555C29.4137 28.5804 29.4725 28.5804 29.5306 28.5876C31.0975 28.8285 31.7318 29.7921 31.9542 31.006H32.0773H33.1708C33.2289 30.9988 33.2878 30.9988 33.3459 31.006C35.1447 31.2846 35.85 32.4608 36.1245 33.8778C39.4381 33.3724 43.0214 31.3886 46.5384 34.9783C47.304 35.8197 47.8904 36.8074 48.2622 37.8815C48.6341 38.9556 48.7836 40.0939 48.7017 41.2273C42.9409 34.5438 35.921 42.8049 44.4415 47.0985C40.9055 48.7705 37.5351 47.6511 35.353 44.8974C35.055 45.7039 34.6843 46.4817 34.2453 47.2213C34.0654 47.5141 33.8808 47.8164 33.6441 48.2321C33.6417 48.243 33.6417 48.2543 33.6441 48.2651C33.4582 48.5921 33.2528 48.9076 33.0288 49.2098H33.7861C34.0996 49.2111 34.3999 49.3359 34.6215 49.5571C34.8432 49.7782 34.9683 50.0779 34.9695 50.3907V56.8192C34.9683 57.132 34.8432 57.4316 34.6215 57.6528C34.3999 57.8739 34.0996 57.9988 33.7861 58H16.6363C16.3229 57.9988 16.0226 57.8739 15.8009 57.6528C15.5793 57.4316 15.4542 57.132 15.4529 56.8192V50.4379C15.4542 50.1251 15.5793 49.8255 15.8009 49.6043C16.0226 49.3831 16.3229 49.2583 16.6363 49.2571H17.0482C16.8417 48.6775 16.6988 48.0772 16.6221 47.4669L10.7241 37.8265L10.6957 37.7934C10.2289 37.1711 9.83208 36.4995 9.51227 35.7907C9.23662 35.1941 9.06379 34.5554 9.00104 33.9014C8.98199 33.6546 8.98199 33.4067 9.00104 33.1598V33.1409ZM52.5501 17.4168C52.5168 17.2894 52.4571 17.1704 52.375 17.0673C52.3043 16.9739 52.2116 16.8993 52.1051 16.85C52.0042 16.7904 51.8908 16.7549 51.7738 16.7461C51.6524 16.7427 51.5312 16.757 51.414 16.7886H51.3856L47.9017 17.8467C47.575 17.9527 47.2209 17.9369 46.9049 17.8023C46.589 17.6677 46.3326 17.4233 46.1834 17.1146C46.0035 16.8123 45.8284 16.5147 45.6154 16.1699C45.4024 15.8251 45.142 15.5181 44.9574 15.2252C44.7728 14.9324 44.503 14.649 44.219 14.3561C43.935 14.0633 43.7456 13.8176 43.419 13.4917C43.2105 13.271 43.0761 12.9908 43.0345 12.6903C42.993 12.3898 43.0463 12.0838 43.1871 11.8149L45.0379 8.34327C45.1014 8.24109 45.14 8.1255 45.1507 8.00575C45.1614 7.886 45.1438 7.76541 45.0994 7.65365C45.0689 7.54355 45.0192 7.43963 44.9527 7.34664C44.8744 7.24951 44.7759 7.17054 44.6639 7.11519L40.2806 4.78657C40.1791 4.73188 40.0709 4.6906 39.9587 4.66376C39.8275 4.66123 39.6966 4.67875 39.5706 4.71572C39.4621 4.74085 39.3623 4.79469 39.2818 4.87159C39.1845 4.94972 39.1054 5.04803 39.0499 5.15972L37.3458 8.34799C37.1839 8.65178 36.9208 8.88971 36.602 9.02076C36.2832 9.15182 35.9285 9.1678 35.5991 9.06594C35.211 8.96675 34.8465 8.87228 34.5246 8.80616C34.2027 8.74003 33.7956 8.6739 33.4074 8.62194C33.0306 8.57253 32.6514 8.54258 32.2714 8.5322C31.8738 8.50386 31.5045 8.5322 31.1495 8.50386C30.8314 8.51589 30.5185 8.42092 30.2609 8.23418C30.0034 8.04745 29.8162 7.77979 29.7295 7.47417L28.5461 3.64824C28.5461 3.6199 28.5461 3.6199 28.5461 3.60101C28.514 3.49081 28.4662 3.38581 28.404 3.28926C28.2443 3.12766 28.0337 3.02591 27.8076 3.00114C27.676 2.99041 27.5436 3.00813 27.4195 3.0531L22.7285 4.48428C22.6007 4.51474 22.4811 4.57278 22.3782 4.65432C22.2852 4.72681 22.2093 4.8187 22.1557 4.92355C22.095 5.02529 22.0608 5.14059 22.0563 5.25891C22.0507 5.37853 22.0651 5.49824 22.0989 5.61316V5.63678L23.164 9.10845C23.2631 9.43593 23.2434 9.78779 23.1084 10.1022C22.9733 10.4167 22.7315 10.6735 22.4255 10.8278C22.1226 11.0025 21.8243 11.1773 21.4788 11.3946C21.1332 11.6118 20.8256 11.8433 20.5321 12.0511C20.2386 12.2589 19.9167 12.5234 19.628 12.7785C19.3392 13.0336 19.0836 13.2508 18.7617 13.5815C18.538 13.7923 18.2536 13.9276 17.9487 13.9682C17.6437 14.0089 17.3337 13.9529 17.0624 13.8082L13.5879 11.9614C13.4785 11.9006 13.3576 11.8636 13.2329 11.8527C13.1231 11.8523 13.0137 11.8634 12.9063 11.8858C12.7982 11.9096 12.6985 11.9618 12.6175 12.0369C12.5188 12.1156 12.4395 12.2158 12.3856 12.3298L12.1962 12.6793C11.1472 12.4768 10.075 12.4212 9.01051 12.514L9.85309 10.9317C10.0924 10.4841 10.4135 10.0852 10.7998 9.75555C11.1945 9.43795 11.6458 9.19757 12.1299 9.04705C12.6163 8.89557 13.1281 8.84257 13.6352 8.89118C14.1339 8.95936 14.6154 9.11953 15.0553 9.36351L17.6257 10.7333L17.815 10.5774C18.1463 10.2893 18.5014 10.0153 18.8564 9.73666C19.2114 9.45798 19.5948 9.1793 19.9451 8.95258L20.0682 8.86284L19.3581 6.47754C19.1983 5.99555 19.145 5.48473 19.2019 4.98023C19.2461 4.47372 19.3944 3.98172 19.6374 3.53488C19.8694 3.0866 20.1917 2.69101 20.5841 2.37293C20.9787 2.05235 21.4321 1.81168 21.919 1.66443L26.6479 0.200184C27.1285 0.0435855 27.6342 -0.0220926 28.139 0.00652607C28.6469 0.0488569 29.1403 0.196885 29.5874 0.441076C30.043 0.689401 30.4464 1.02296 30.7756 1.42354C31.089 1.81294 31.3136 2.2659 31.4335 2.7508L32.2998 5.52814C32.3675 5.53502 32.4357 5.53502 32.5033 5.52814C32.9294 5.55176 33.3696 5.60371 33.8335 5.64622C34.2974 5.68873 34.7187 5.77848 35.1636 5.8635C35.2277 5.86659 35.2905 5.88266 35.3482 5.91073L36.5127 3.72381C36.7465 3.27635 37.0695 2.88129 37.4618 2.5629C37.8542 2.2445 38.3076 2.00947 38.7943 1.87226H38.8227C39.2982 1.72367 39.7992 1.67384 40.2948 1.72583C40.7903 1.7764 41.2719 1.91898 41.7149 2.14621L46.0935 4.47955C46.5422 4.71806 46.942 5.0385 47.2721 5.42423C47.5998 5.81366 47.8417 6.26747 47.9822 6.75621C48.1344 7.23981 48.1875 7.74902 48.1384 8.25352C48.073 8.75174 47.9123 9.23278 47.665 9.67053L46.2923 12.24C46.3444 12.292 46.4012 12.3723 46.4532 12.4243C46.7373 12.7596 47.0165 13.1091 47.2911 13.4634C47.5656 13.8176 47.8544 14.2002 48.0769 14.5498L48.1668 14.6773L50.5573 13.9641C51.0406 13.806 51.5526 13.7544 52.0578 13.8129C52.5647 13.8576 53.0573 14.0038 53.5063 14.2427C53.9561 14.4733 54.3528 14.795 54.6708 15.1874V15.2252C54.992 15.6189 55.2332 16.0713 55.3808 16.5572L56.8009 21.2381H56.8245C56.9684 21.7169 57.0245 22.2177 56.9902 22.7165C56.9456 23.2229 56.7974 23.7148 56.5547 24.1618C56.3146 24.6047 55.9935 24.9988 55.608 25.3238C55.2151 25.6389 54.7579 25.8646 54.2684 25.985L51.485 26.8494C51.485 26.9203 51.485 27.0006 51.485 27.0714C51.485 27.5012 51.414 27.9358 51.3714 28.3514C51.3714 28.3514 51.3714 28.4034 51.3714 28.4223C51.3151 28.8734 51.2345 29.3212 51.13 29.7637L51.0969 29.9243L53.3075 31.1004C53.7602 31.3286 54.1588 31.6507 54.4767 32.0451C54.7906 32.4348 55.0239 32.8827 55.163 33.3629V33.396C55.312 33.8689 55.3619 34.3673 55.3098 34.8602C55.2598 35.3554 55.1152 35.8364 54.8838 36.2772L54.5335 36.9338L53.9086 36.5984C53.4419 35.2685 52.7467 34.0299 51.8543 32.9378C51.788 32.8481 51.717 32.7631 51.6413 32.678C50.6399 31.4852 49.4288 30.4848 48.0674 29.7259C48.11 29.5512 48.1526 29.3717 48.1905 29.1922C48.252 28.8379 48.323 28.4648 48.3656 28.0491C48.3656 28.0491 48.3656 27.9972 48.3656 27.9783C48.4177 27.5957 48.4461 27.2509 48.4745 26.9061C48.5029 26.5613 48.5171 26.1551 48.5076 25.7867C48.4956 25.4692 48.5907 25.157 48.7779 24.9C48.965 24.643 49.2333 24.4562 49.5395 24.3696L53.369 23.1888C53.369 23.1888 53.4021 23.1888 53.4211 23.1888C53.5304 23.1578 53.6342 23.11 53.7288 23.0471C53.8125 22.9764 53.8788 22.8875 53.9228 22.7873C53.9793 22.6838 54.0132 22.5695 54.0223 22.452C54.033 22.3206 54.0152 22.1885 53.9702 22.0646L52.5501 17.3885V17.4168ZM36.4559 15.9573C37.1195 16.3043 37.7433 16.7225 38.3162 17.2043C38.889 17.6744 39.4124 18.2014 39.8783 18.7772C40.3177 19.3431 40.7133 19.9415 41.0617 20.5673C41.4009 21.1873 41.6738 21.8411 41.8758 22.5181C42.0904 23.1996 42.2269 23.9031 42.2829 24.6153C42.361 25.3279 42.361 26.047 42.2829 26.7597C42.2829 26.8116 42.2829 26.8494 42.2829 26.8825C42.2255 27.4839 42.1178 28.0796 41.9611 28.6632C41.1847 28.7388 40.4132 28.8616 39.6511 28.9985L38.9505 28.6254C39.012 28.4648 39.0641 28.2995 39.1162 28.1294C39.2597 27.6447 39.361 27.1484 39.4191 26.6463C39.4143 26.6118 39.4143 26.5769 39.4191 26.5424C39.4737 26.0021 39.4737 25.4578 39.4191 24.9176C39.3693 24.401 39.2711 23.8902 39.1256 23.3919C38.9763 22.8989 38.7731 22.4237 38.5197 21.9749C38.2617 21.4957 37.959 21.0418 37.6156 20.6193C37.2702 20.1946 36.8815 19.8067 36.4559 19.4621C35.5876 18.7584 34.591 18.2291 33.5211 17.9034C33.0352 17.7602 32.5379 17.659 32.0347 17.6011C32.0003 17.6078 31.965 17.6078 31.9306 17.6011C31.3889 17.5513 30.8439 17.5513 30.3022 17.6011C29.7844 17.6523 29.2725 17.7519 28.7733 17.8986C28.2791 18.0477 27.8029 18.2504 27.3532 18.5032C26.873 18.759 26.4182 19.0595 25.9946 19.4007C25.5743 19.7428 25.189 20.1257 24.8444 20.5437C24.7355 20.6712 24.6266 20.8082 24.5225 20.9546L21.938 19.5802C22.1444 19.2682 22.3688 18.9686 22.6101 18.6827C23.0687 18.1153 23.5841 17.5962 24.1485 17.1334C24.7144 16.6919 25.3143 16.2955 25.9426 15.9479C26.5798 15.6115 27.247 15.3347 27.9354 15.1213C28.6121 14.9126 29.3084 14.7733 30.0135 14.7056C30.7294 14.6301 31.4513 14.6301 32.1672 14.7056C32.2146 14.7056 32.2572 14.7293 32.2856 14.7056C32.983 14.7722 33.6725 14.9051 34.3447 15.1024C35.0614 15.3215 35.7568 15.6045 36.4227 15.9479L36.4559 15.9573ZM18.5203 27.2934V27.3406V27.402V27.5012V27.5532V27.6051V27.7657V27.8744V27.9311V28.0397V28.1011V28.1625V28.3467V28.4081V28.4742V28.5923V37.3211C18.5287 37.4301 18.5145 37.5397 18.4785 37.643C18.4425 37.7463 18.3855 37.8411 18.311 37.9213C18.2366 38.0016 18.1463 38.0656 18.0459 38.1094C17.9454 38.1532 17.837 38.1758 17.7274 38.1758C17.6178 38.1758 17.5094 38.1532 17.409 38.1094C17.3085 38.0656 17.2183 38.0016 17.1438 37.9213C17.0694 37.8411 17.0124 37.7463 16.9763 37.643C16.9403 37.5397 16.9261 37.4301 16.9345 37.3211V35.8569C16.893 35.8334 16.8534 35.8065 16.8162 35.7766L15.06 34.5627L13.0057 32.8764C12.7959 32.7 12.5635 32.5523 12.3146 32.4372H11.7797C11.5529 32.3806 11.3146 32.3904 11.0933 32.4655C11.0086 32.5012 10.9319 32.5535 10.8677 32.6192C10.8034 32.6849 10.753 32.7627 10.7193 32.8481H10.672C10.5753 33.1709 10.5431 33.5095 10.5773 33.8447C10.626 34.3198 10.7556 34.783 10.9607 35.2145C11.2348 35.794 11.5713 36.342 11.9643 36.8488C11.9643 36.8488 11.9974 36.896 12.0116 36.9244L18.0233 46.7301C18.0961 46.8371 18.1416 46.9604 18.1558 47.089C18.207 47.8472 18.4183 48.5861 18.7759 49.2571H30.7756C31.3812 48.7986 31.8788 48.2133 32.2335 47.5425C32.2413 47.5273 32.2508 47.513 32.2619 47.5C32.4323 47.2071 32.6595 46.834 32.882 46.4703C33.4663 45.4571 33.9211 44.3749 34.2358 43.2489V43.2206V43.1734V43.145V43.0978V43.0647V43.0175L34.2642 42.923V42.8758V42.8333V42.786V42.753V42.7057V42.6585V42.6113V42.5168V42.4696V42.4271V42.3798V42.3326V42.2948V42.2476V42.2145V42.1673V42.12V42.0728V42.0397V41.9925V41.9547V41.9122V41.865V41.8225V41.7752V41.728V41.6855V41.5485V41.5013V41.4541V41.4115V41.3643V41.3218V41.2746V40.8778V40.4055L34.2027 37.7132C34.2003 37.6754 34.2003 37.6375 34.2027 37.5998C34.2027 37.562 34.2027 37.3069 34.2027 36.9669V36.8818V36.3009V36.2111V35.6018V35.5121V35.0067V34.9264V34.8413V34.7516V34.7091V34.4068V34.369V34.3265V34.284V34.2415V34.2084V34.1659V34.1281V34.0856V34.0148C34.1455 33.668 33.984 33.3469 33.7397 33.0938C33.4954 32.8408 33.1798 32.6678 32.8347 32.5977H32.0726C32.0726 32.8197 32.0726 33.037 32.0726 33.259V33.3062V33.344V33.5424V33.5896V33.6227V33.6463V33.6699V33.6936C32.0442 34.1328 32.0205 34.5627 32.0205 34.9689C32.0205 35.1793 31.9367 35.3812 31.7876 35.53C31.6384 35.6788 31.4362 35.7624 31.2253 35.7624C31.0143 35.7624 30.8121 35.6788 30.6629 35.53C30.5138 35.3812 30.43 35.1793 30.43 34.9689C30.43 34.5627 30.4632 34.0903 30.4916 33.5991V33.4432V33.3629V33.2921V33.1362V33.0559V32.9851V32.9048V33.1645V33.004V32.8481V32.6922V32.5977C30.4916 31.4075 30.2785 30.373 29.3176 30.1983H28.2668C28.2102 30.2058 28.1529 30.2058 28.0964 30.1983C28.0964 30.6423 28.0964 31.1052 28.0585 31.5539V32.0262C28.0301 32.4655 28.0064 32.8906 28.0064 33.2968C28.0064 33.5073 27.9226 33.7091 27.7735 33.8579C27.6244 34.0067 27.4221 34.0903 27.2112 34.0903C27.0003 34.0903 26.798 34.0067 26.6489 33.8579C26.4997 33.7091 26.4159 33.5073 26.4159 33.2968C26.4159 32.8906 26.4491 32.4183 26.4775 31.927V31.8467V31.7759V31.7003V31.62V31.5397V31.4594V31.3083V31.2327V31.1524V31.0863V31.006V30.9257V30.8926C26.5153 29.5512 26.3686 28.3137 25.3083 28.12H24.2858C24.2169 28.1205 24.1484 28.111 24.0823 28.0917V31.1571C24.0823 31.3676 23.9985 31.5694 23.8493 31.7182C23.7002 31.867 23.4979 31.9506 23.287 31.9506C23.0761 31.9506 22.8738 31.867 22.7247 31.7182C22.5756 31.5694 22.4918 31.3676 22.4918 31.1571V27.284C22.4918 26.1881 21.4031 25.7158 20.3853 25.7158C20.099 25.7164 19.8168 25.7844 19.5617 25.9142C19.0341 26.2298 18.6504 26.7381 18.4919 27.3312L18.5203 27.2934ZM16.7121 33.0701L15.9642 32.7631C15.6242 32.6248 15.2765 32.5065 14.9228 32.4088L16.0636 33.3535L16.7121 33.8825V33.0701Z" fill="#201E1E"/>
</svg>
